<svg width="25" height="24" viewBox="0 0 25 24" fill="none" xmlns="http://www.w3.org/2000/svg">
<path d="M13.126 9.00488H17.626L17.126 11.0049H13.126V20.0049H11.126V11.0049H7.12598V9.00488H11.126V7.13288C11.126 5.34988 11.312 4.70288 11.66 4.05088C12.001 3.40669 12.5278 2.87989 13.172 2.53888C13.824 2.19088 14.471 2.00488 16.254 2.00488C16.776 2.00488 17.234 2.05488 17.626 2.15488V4.00488H16.254C14.93 4.00488 14.527 4.08288 14.115 4.30288C13.8192 4.45739 13.5781 4.69893 13.424 4.99488C13.204 5.40588 13.126 5.80888 13.126 7.13288V9.00488Z" fill="white"/>
</svg>
