<svg width="25" height="24" viewBox="0 0 25 24" fill="none" xmlns="http://www.w3.org/2000/svg">
<path d="M16.126 7.00488C16.126 6.73967 16.2313 6.48531 16.4189 6.29778C16.6064 6.11024 16.8608 6.00488 17.126 6.00488C17.3912 6.00488 17.6455 6.11024 17.8331 6.29778C18.0206 6.48531 18.126 6.73967 18.126 7.00488C18.126 7.2701 18.0206 7.52445 17.8331 7.71199C17.6455 7.89953 17.3912 8.00488 17.126 8.00488C16.8608 8.00488 16.6064 7.89953 16.4189 7.71199C16.2313 7.52445 16.126 7.2701 16.126 7.00488Z" fill="white"/>
<path fill-rule="evenodd" clip-rule="evenodd" d="M12.126 7.25488C10.8662 7.25488 9.65802 7.75533 8.76722 8.64613C7.87642 9.53692 7.37598 10.7451 7.37598 12.0049C7.37598 13.2647 7.87642 14.4728 8.76722 15.3636C9.65802 16.2544 10.8662 16.7549 12.126 16.7549C13.3858 16.7549 14.5939 16.2544 15.4847 15.3636C16.3755 14.4728 16.876 13.2647 16.876 12.0049C16.876 10.7451 16.3755 9.53692 15.4847 8.64613C14.5939 7.75533 13.3858 7.25488 12.126 7.25488ZM8.87598 12.0049C8.87598 11.1429 9.21839 10.3163 9.82788 9.70679C10.4374 9.09729 11.264 8.75488 12.126 8.75488C12.9879 8.75488 13.8146 9.09729 14.4241 9.70679C15.0336 10.3163 15.376 11.1429 15.376 12.0049C15.376 12.8668 15.0336 13.6935 14.4241 14.303C13.8146 14.9125 12.9879 15.2549 12.126 15.2549C11.264 15.2549 10.4374 14.9125 9.82788 14.303C9.21839 13.6935 8.87598 12.8668 8.87598 12.0049Z" fill="white"/>
<path fill-rule="evenodd" clip-rule="evenodd" d="M17.3845 2.83743C13.8899 2.45002 10.3632 2.45002 6.86852 2.83743C4.85652 3.06243 3.23152 4.64743 2.99552 6.66943C2.58092 10.214 2.58092 13.7948 2.99552 17.3394C3.23152 19.3614 4.85552 20.9464 6.86852 21.1714C10.3632 21.5584 13.8899 21.5584 17.3845 21.1714C19.3965 20.9464 21.0215 19.3614 21.2575 17.3394C21.6722 13.7948 21.6722 10.214 21.2575 6.66943C21.0215 4.64743 19.3975 3.06243 17.3845 2.83743ZM7.03452 4.32743C10.4188 3.9523 13.8342 3.9523 17.2185 4.32743C18.5485 4.47743 19.6135 5.52643 19.7685 6.84443C20.1695 10.2727 20.1695 13.7361 19.7685 17.1644C19.6883 17.8095 19.3931 18.4086 18.9304 18.8652C18.4677 19.3217 17.8646 19.6089 17.2185 19.6804C13.8342 20.0556 10.4188 20.0556 7.03452 19.6804C6.38846 19.6089 5.78537 19.3217 5.32268 18.8652C4.85998 18.4086 4.56469 17.8095 4.48452 17.1644C4.08357 13.7361 4.08357 10.2727 4.48452 6.84443C4.56469 6.19939 4.85998 5.60021 5.32268 5.14368C5.78537 4.68715 6.38846 4.39894 7.03452 4.32743Z" fill="white"/>
</svg>
