<svg width="24" height="24" viewBox="0 0 24 24" fill="none" xmlns="http://www.w3.org/2000/svg">
<path d="M19.5322 2.66113H3.71973C3.33848 2.66113 2.97284 2.81258 2.70326 3.08217C2.43368 3.35175 2.28223 3.71738 2.28223 4.09863V19.9111C2.28223 20.2924 2.43368 20.658 2.70326 20.9276C2.97284 21.1972 3.33848 21.3486 3.71973 21.3486H19.5322C19.9135 21.3486 20.2791 21.1972 20.5487 20.9276C20.8183 20.658 20.9697 20.2924 20.9697 19.9111V4.09863C20.9697 3.71738 20.8183 3.35175 20.5487 3.08217C20.2791 2.81258 19.9135 2.66113 19.5322 2.66113ZM19.5322 19.9111H3.71973V4.09863H19.5322V19.9111ZM8.75098 10.5674V16.3174C8.75098 16.508 8.67525 16.6908 8.54046 16.8256C8.40567 16.9604 8.22285 17.0361 8.03223 17.0361C7.8416 17.0361 7.65879 16.9604 7.52399 16.8256C7.3892 16.6908 7.31348 16.508 7.31348 16.3174V10.5674C7.31348 10.3768 7.3892 10.1939 7.52399 10.0591C7.65879 9.92436 7.8416 9.84863 8.03223 9.84863C8.22285 9.84863 8.40567 9.92436 8.54046 10.0591C8.67525 10.1939 8.75098 10.3768 8.75098 10.5674ZM16.6572 13.083V16.3174C16.6572 16.508 16.5815 16.6908 16.4467 16.8256C16.3119 16.9604 16.1291 17.0361 15.9385 17.0361C15.7479 17.0361 15.565 16.9604 15.4302 16.8256C15.2955 16.6908 15.2197 16.508 15.2197 16.3174V13.083C15.2197 12.6064 15.0304 12.1494 14.6934 11.8124C14.3565 11.4754 13.8994 11.2861 13.4229 11.2861C12.9463 11.2861 12.4892 11.4754 12.1523 11.8124C11.8153 12.1494 11.626 12.6064 11.626 13.083V16.3174C11.626 16.508 11.5503 16.6908 11.4155 16.8256C11.2807 16.9604 11.0979 17.0361 10.9072 17.0361C10.7166 17.0361 10.5338 16.9604 10.399 16.8256C10.2642 16.6908 10.1885 16.508 10.1885 16.3174V10.5674C10.1894 10.3913 10.2548 10.2217 10.3725 10.0907C10.4901 9.95977 10.6518 9.87652 10.8267 9.8568C11.0017 9.83708 11.1778 9.88225 11.3216 9.98375C11.4655 10.0853 11.567 10.236 11.6071 10.4075C12.0933 10.0776 12.6602 9.88645 13.2469 9.85449C13.8336 9.82253 14.4179 9.95097 14.937 10.226C15.4562 10.5011 15.8907 10.9124 16.1937 11.4157C16.4968 11.9191 16.657 12.4955 16.6572 13.083ZM9.11035 8.05176C9.11035 8.26499 9.04712 8.47343 8.92865 8.65073C8.81019 8.82803 8.64181 8.96621 8.44481 9.04782C8.24781 9.12942 8.03103 9.15077 7.82189 9.10917C7.61276 9.06757 7.42066 8.96489 7.26988 8.81411C7.1191 8.66333 7.01642 8.47123 6.97482 8.26209C6.93322 8.05295 6.95457 7.83618 7.03617 7.63918C7.11777 7.44218 7.25596 7.2738 7.43325 7.15533C7.61055 7.03686 7.81899 6.97363 8.03223 6.97363C8.31816 6.97363 8.59239 7.08722 8.79458 7.28941C8.99676 7.4916 9.11035 7.76582 9.11035 8.05176Z" fill="white"/>
</svg>
