<svg width="52" height="52" viewBox="0 0 52 52" fill="none" xmlns="http://www.w3.org/2000/svg">
<rect width="52" height="52" rx="7" fill="#FFF5F0"/>
<path d="M37.2099 18.2563C37.3424 18.0671 37.4109 17.84 37.4054 17.6086C37.3998 17.3772 37.3205 17.1537 37.1791 16.9711C37.0376 16.7886 36.8416 16.6567 36.62 16.5949C36.3984 16.533 36.1629 16.5446 35.9483 16.6278C35.7337 16.7111 35.5513 16.8616 35.4282 17.0571C35.3051 17.2526 35.2478 17.4828 35.2646 17.7137C35.2814 17.9445 35.3716 18.1638 35.5218 18.3391C35.6719 18.5145 35.8741 18.6365 36.0985 18.6873C36.3054 18.7338 36.5212 18.7176 36.719 18.641C36.9167 18.5643 37.0875 18.4304 37.2099 18.2563Z" fill="#FD6922"/>
<path d="M37.2099 18.2563C37.3424 18.0671 37.4109 17.84 37.4054 17.6086C37.3998 17.3772 37.3205 17.1537 37.1791 16.9711C37.0376 16.7886 36.8416 16.6567 36.62 16.5949C36.3984 16.533 36.1629 16.5446 35.9483 16.6278C35.7337 16.7111 35.5513 16.8616 35.4282 17.0571C35.3051 17.2526 35.2478 17.4828 35.2646 17.7137C35.2814 17.9445 35.3716 18.1638 35.5218 18.3391C35.6719 18.5145 35.8741 18.6365 36.0985 18.6873C36.3054 18.7338 36.5212 18.7176 36.719 18.641C36.9167 18.5643 37.0875 18.4304 37.2099 18.2563Z" fill="#FD6922"/>
<path d="M39.2586 18.8146C39.2588 18.8102 39.2588 18.8058 39.2586 18.8014C39.2586 18.6612 39.2586 14.2554 39.2586 14.1206C39.2586 13.9857 39.2586 13.8905 39.2586 13.7794C39.2586 12.9861 39.2008 12.2509 38.6621 11.7114C38.1813 11.2301 37.443 11.0264 36.2975 11.0423L16.0373 11C13.9564 11 13 11.9547 13 14.0492V20.8483V21.6734C13 22.5725 13.6201 23.4981 14.9916 23.4981H17.0436C17.1976 23.4981 17.3453 23.4365 17.4542 23.3269C17.5631 23.2173 17.6243 23.0687 17.6243 22.9137V22.7338C17.6246 22.6555 17.6096 22.5778 17.58 22.5053C17.5505 22.4328 17.507 22.3669 17.4521 22.3114C17.3971 22.2559 17.3318 22.2118 17.26 22.1817C17.1881 22.1517 17.111 22.1362 17.0331 22.1362H15.1939C14.96 22.1348 14.7361 22.0403 14.5712 21.8733C14.4063 21.7063 14.3137 21.4804 14.3137 21.245V14.0492C14.3137 12.6766 14.6737 12.309 16.0373 12.309L36.3106 12.354C37.2538 12.3381 37.6243 12.4995 37.7557 12.6396C37.979 12.8644 37.9711 13.433 37.9633 14.1047C37.9633 14.2449 37.9633 18.6533 37.9633 18.8014C37.9633 18.8199 37.9633 18.8331 37.9633 18.849C37.963 18.8534 37.963 18.8578 37.9633 18.8622V20.8694C37.9633 22.0515 37.2407 22.1917 36.9123 22.1917H34.4477C33.8108 22.1916 33.1993 22.4431 32.7448 22.8922C32.2903 23.3413 32.0291 23.952 32.0174 24.593L31.9569 27.9886V37.0329C31.9569 37.0401 31.9555 37.0472 31.9527 37.0538C31.9499 37.0604 31.9458 37.0663 31.9406 37.0713C31.9355 37.0762 31.9294 37.08 31.9227 37.0825C31.916 37.085 31.9089 37.0861 31.9018 37.0858H21.9858C21.9719 37.0858 21.9585 37.0802 21.9487 37.0703C21.9388 37.0604 21.9333 37.0469 21.9333 37.0329V25.738C21.9337 25.6505 21.9165 25.5637 21.8829 25.4829C21.8493 25.4021 21.7999 25.329 21.7377 25.2678C21.6754 25.2066 21.6016 25.1586 21.5205 25.1267C21.4395 25.0949 21.3529 25.0797 21.2659 25.0822H21.2475C21.0807 25.0843 20.9214 25.1523 20.8039 25.2715C20.6864 25.3907 20.6202 25.5516 20.6196 25.7195V38.0167C20.6196 38.718 20.8964 39.3907 21.3891 39.8866C21.8819 40.3826 22.5502 40.6612 23.247 40.6612H30.638C31.3348 40.6612 32.0031 40.3826 32.4958 39.8866C32.9886 39.3907 33.2654 38.718 33.2654 38.0167V27.9886V24.8601C33.2661 24.4965 33.4101 24.1481 33.6657 23.8912C33.9214 23.6344 34.2678 23.4902 34.629 23.4902H36.9097C37.519 23.4889 38.1051 23.2544 38.5492 22.8343C38.7967 22.5738 38.9887 22.2652 39.1134 21.9273C39.2381 21.5894 39.2929 21.2294 39.2743 20.8694V18.8622C39.2706 18.8459 39.2653 18.83 39.2586 18.8146ZM26.7993 39.7726C26.5873 39.7726 26.38 39.7094 26.2037 39.5908C26.0274 39.4722 25.89 39.3037 25.8089 39.1066C25.7278 38.9094 25.7065 38.6925 25.7479 38.4832C25.7893 38.2739 25.8913 38.0816 26.0413 37.9307C26.1912 37.7798 26.3822 37.6771 26.5901 37.6354C26.7981 37.5938 27.0136 37.6152 27.2095 37.6968C27.4054 37.7785 27.5728 37.9168 27.6906 38.0942C27.8084 38.2717 27.8713 38.4803 27.8713 38.6937C27.8716 38.8355 27.8441 38.9759 27.7904 39.107C27.7366 39.238 27.6577 39.3571 27.5581 39.4574C27.4585 39.5577 27.3401 39.6371 27.2099 39.6912C27.0797 39.7453 26.9402 39.773 26.7993 39.7726Z" fill="#FD6922"/>
</svg>
