<svg width="145" height="30" viewBox="0 0 145 30" fill="none" xmlns="http://www.w3.org/2000/svg">
<path d="M38.218 24.2607H38.9563V29.9439H38.218V24.2607Z" fill="#FD6922"/>
<path d="M41.1746 24.2607H44.9975V24.8584H43.4578V29.9386H42.7221V24.8584H41.1746V24.2607Z" fill="#FD6922"/>
<path d="M52.4803 30.0003C51.3478 30.0003 50.5438 29.3656 50.5281 28.4136H51.3163C51.3662 28.8869 51.6973 29.3603 52.4829 29.3603C53.1975 29.3603 53.6179 28.953 53.6179 28.4136C53.6179 26.8824 50.5649 27.8608 50.5649 25.7479C50.5649 24.809 51.3163 24.1611 52.4356 24.1611C53.5128 24.1611 54.217 24.7562 54.3063 25.6209H53.4945C53.4445 25.2375 53.0898 24.8038 52.4014 24.7958C51.7919 24.78 51.3137 25.0973 51.3137 25.7108C51.3137 27.1786 54.3615 26.2635 54.3615 28.3686C54.3615 29.2016 53.7046 30.0003 52.4803 30.0003Z" fill="#FD6922"/>
<path d="M59.3169 29.9991C58.7431 30.0101 58.179 29.8489 57.6965 29.5361C57.214 29.2232 56.835 28.7728 56.6077 28.2424C56.3805 27.7119 56.3153 27.1253 56.4206 26.5574C56.5258 25.9895 56.7966 25.466 57.1985 25.0536C57.6004 24.6412 58.1152 24.3586 58.6773 24.2417C59.2394 24.1249 59.8233 24.1792 60.3547 24.3976C60.886 24.6161 61.3407 24.9888 61.6608 25.4683C61.9808 25.9478 62.1518 26.5124 62.1519 27.0901C62.1663 27.4713 62.1032 27.8514 61.9666 28.2072C61.8299 28.563 61.6225 28.887 61.3571 29.1594C61.0917 29.4317 60.7739 29.6466 60.4231 29.791C60.0723 29.9354 59.6959 30.0062 59.3169 29.9991V29.9991ZM59.3169 29.3565C60.5072 29.3565 61.4005 28.4838 61.4005 27.098C61.4005 25.7123 60.5072 24.837 59.3169 24.837C58.1267 24.837 57.236 25.7017 57.236 27.098C57.236 28.4944 58.1267 29.3538 59.3169 29.3538V29.3565Z" fill="#FD6922"/>
<path d="M65.1739 24.2607V29.3541H67.1497V29.9571H64.4355V24.2607H65.1739Z" fill="#FD6922"/>
<path d="M69.2307 24.2607H69.9664V27.8547C69.9664 28.9125 70.526 29.3488 71.3616 29.3488C72.1971 29.3488 72.7462 28.8993 72.7462 27.8547V24.2607H73.4845V27.8467C73.4845 29.3224 72.5203 29.9994 71.3537 29.9994C70.1871 29.9994 69.2307 29.3224 69.2307 27.8467V24.2607Z" fill="#FD6922"/>
<path d="M75.6707 24.2607H79.4962V24.8584H77.9565V29.9386H77.2182V24.8584H75.6707V24.2607Z" fill="#FD6922"/>
<path d="M81.7129 24.2607H82.4512V29.9439H81.7129V24.2607Z" fill="#FD6922"/>
<path d="M87.5826 29.9991C87.0087 30.0101 86.4446 29.8489 85.9621 29.5361C85.4796 29.2232 85.1006 28.7728 84.8734 28.2424C84.6461 27.7119 84.581 27.1253 84.6862 26.5574C84.7914 25.9895 85.0622 25.466 85.4641 25.0536C85.866 24.6412 86.3808 24.3586 86.9429 24.2417C87.505 24.1249 88.089 24.1792 88.6203 24.3976C89.1516 24.6161 89.6063 24.9888 89.9264 25.4683C90.2465 25.9478 90.4175 26.5124 90.4176 27.0901C90.4319 27.4713 90.3688 27.8514 90.2322 28.2072C90.0955 28.563 89.8881 28.887 89.6227 29.1594C89.3573 29.4317 89.0395 29.6466 88.6887 29.791C88.3379 29.9354 87.9615 30.0062 87.5826 29.9991V29.9991ZM87.5826 29.3565C88.7728 29.3565 89.6661 28.4838 89.6661 27.098C89.6661 25.7123 88.7728 24.837 87.5826 24.837C86.3923 24.837 85.5016 25.7017 85.5016 27.098C85.5016 28.4944 86.3923 29.3538 87.5826 29.3538V29.3565Z" fill="#FD6922"/>
<path d="M97.1413 24.25V29.9437H96.403L93.4392 25.4162V29.9437H92.7009V24.25H93.4392L96.403 28.7695V24.25H97.1413Z" fill="#FD6922"/>
<path d="M101.498 30.0003C100.363 30.0003 99.5617 29.3656 99.5459 28.4136H100.334C100.381 28.8869 100.715 29.3603 101.501 29.3603C102.213 29.3603 102.633 28.953 102.633 28.4136C102.633 26.8824 99.5801 27.8608 99.5801 25.7479C99.5801 24.809 100.334 24.1611 101.451 24.1611C102.528 24.1611 103.235 24.7562 103.324 25.6209H102.512C102.465 25.2375 102.108 24.8038 101.419 24.7958C100.812 24.78 100.334 25.0973 100.334 25.7108C100.334 27.1786 103.379 26.2635 103.379 28.3686C103.377 29.2016 102.733 30.0003 101.498 30.0003Z" fill="#FD6922"/>
<path d="M116.477 27.5691H115.391V29.9492H114.653V24.2607H116.477C117.806 24.2607 118.429 24.9933 118.429 25.9215C118.429 26.7863 117.88 27.5691 116.477 27.5691ZM116.477 26.9582C117.32 26.9582 117.677 26.5589 117.677 25.9215C117.677 25.2842 117.32 24.8637 116.477 24.8637H115.391V26.9502L116.477 26.9582Z" fill="#FD6922"/>
<path d="M123.064 24.2607H123.852L121.719 29.9439H120.862L118.731 24.2607H119.519L121.293 29.1611L123.064 24.2607Z" fill="#FD6922"/>
<path d="M124.13 24.2607H127.956V24.8584H126.416V29.9386H125.68V24.8584H124.133L124.13 24.2607Z" fill="#FD6922"/>
<path d="M128.926 29.9914C128.826 29.9946 128.727 29.9677 128.643 29.9141C128.558 29.8606 128.491 29.7828 128.451 29.6908C128.41 29.5989 128.398 29.4969 128.416 29.3978C128.433 29.2988 128.48 29.2074 128.549 29.1351C128.619 29.0629 128.708 29.0132 128.806 28.9924C128.904 28.9716 129.005 28.9806 129.098 29.0183C129.191 29.056 129.27 29.1207 129.326 29.2041C129.382 29.2875 129.412 29.3857 129.412 29.4863C129.413 29.618 129.363 29.7449 129.272 29.8394C129.181 29.934 129.056 29.9886 128.926 29.9914V29.9914Z" fill="#FD6922"/>
<path d="M132.948 24.2607V29.3541H134.924V29.9571H132.213V24.2607H132.948Z" fill="#FD6922"/>
<path d="M135.192 24.2607H139.017V24.8584H137.478V29.9386H136.742V24.8584H135.192V24.2607Z" fill="#FD6922"/>
<path d="M144.509 27.1142C144.509 28.8755 143.366 29.9439 141.511 29.9439H139.753V24.2607H141.511C143.366 24.2607 144.509 25.3529 144.509 27.1142ZM141.511 29.333C142.985 29.333 143.755 28.4999 143.755 27.1142C143.755 25.7285 142.985 24.8584 141.511 24.8584H140.492V29.3277L141.511 29.333Z" fill="#FD6922"/>
<path d="M41.1953 8.39111V13.1513C41.1953 14.4138 41.6936 15.6245 42.5805 16.5172C43.4675 17.41 44.6704 17.9115 45.9247 17.9115V21.5054C44.833 21.523 43.7493 21.3155 42.7403 20.8957C41.7313 20.476 40.8184 19.8528 40.0577 19.0645C39.2746 18.2989 38.6556 17.3799 38.239 16.3643C37.8224 15.3486 37.6169 14.2579 37.6352 13.1592V0.0449219H41.1874V4.8051H45.9168V8.39111H41.1953Z" fill="#FD6922"/>
<path d="M62.6011 18.3377C62.3993 18.592 62.1835 18.8348 61.9547 19.0649C60.397 20.6278 58.2872 21.5054 56.0877 21.5054C53.8882 21.5054 51.7784 20.6278 50.2206 19.0649C49.4372 18.2994 48.8179 17.3806 48.4008 16.3649C47.9837 15.3493 47.7777 14.2585 47.7955 13.1597V4.81348H51.3504V13.1597C51.3504 14.4242 51.8495 15.637 52.7379 16.5312C53.6263 17.4254 54.8313 17.9278 56.0877 17.9278C57.3441 17.9278 58.549 17.4254 59.4374 16.5312C60.3258 15.637 60.8249 14.4242 60.8249 13.1597V4.81348H64.372V13.1597C64.372 14.4242 64.8711 15.637 65.7595 16.5312C66.6479 17.4254 67.8528 17.9278 69.1092 17.9278C70.3656 17.9278 71.5706 17.4254 72.459 16.5312C73.3474 15.637 73.8465 14.4242 73.8465 13.1597V4.81348H77.3988V13.1597C77.4171 14.2583 77.2116 15.3491 76.7949 16.3647C76.3783 17.3804 75.7594 18.2993 74.9763 19.0649C73.4185 20.6278 71.3087 21.5054 69.1092 21.5054C66.9097 21.5054 64.7999 20.6278 63.2422 19.0649C63.016 18.834 62.802 18.5912 62.6011 18.3377V18.3377Z" fill="#FD6922"/>
<path d="M81.5527 3.62029C81.3181 3.62373 81.0853 3.57854 80.8688 3.48755C80.6523 3.39656 80.4567 3.26171 80.2942 3.09138C80.1252 2.92761 79.9914 2.7307 79.901 2.51283C79.8106 2.29495 79.7656 2.06073 79.7687 1.82465C79.7661 1.58863 79.8113 1.35455 79.9017 1.13674C79.992 0.918929 80.1256 0.721968 80.2942 0.55791C80.6292 0.224259 81.0814 0.0371094 81.5527 0.0371094C82.024 0.0371094 82.4763 0.224259 82.8113 0.55791C82.9799 0.721968 83.1134 0.918929 83.2038 1.13674C83.2941 1.35455 83.3394 1.58863 83.3368 1.82465C83.3399 2.06073 83.2948 2.29495 83.2044 2.51283C83.1141 2.7307 82.9802 2.92761 82.8113 3.09138C82.6489 3.26197 82.4534 3.39699 82.2368 3.488C82.0203 3.57901 81.7874 3.62404 81.5527 3.62029V3.62029ZM83.3289 4.81298V21.5053H79.7766V4.81298H83.3289Z" fill="#FD6922"/>
<path d="M89.2518 0.0449219V21.5054H85.6995V0.0449219H89.2518Z" fill="#FD6922"/>
<path d="M93.3972 3.62029C93.1626 3.62373 92.9298 3.57854 92.7133 3.48755C92.4968 3.39656 92.3012 3.26171 92.1387 3.09138C91.9697 2.92761 91.8359 2.7307 91.7455 2.51283C91.6551 2.29495 91.6101 2.06073 91.6132 1.82465C91.6106 1.58863 91.6558 1.35455 91.7462 1.13674C91.8365 0.918929 91.9701 0.721968 92.1387 0.55791C92.4737 0.224259 92.9259 0.0371094 93.3972 0.0371094C93.8685 0.0371094 94.3208 0.224259 94.6558 0.55791C94.8249 0.721585 94.9588 0.918475 95.0491 1.13637C95.1395 1.35427 95.1845 1.58854 95.1812 1.82465C95.185 2.06082 95.1402 2.29523 95.0498 2.5132C94.9594 2.73116 94.8252 2.928 94.6558 3.09138C94.4934 3.26197 94.2979 3.39699 94.0813 3.488C93.8648 3.57901 93.6319 3.62404 93.3972 3.62029V3.62029ZM95.1734 4.81298V21.5053H91.6211V4.81298H95.1734Z" fill="#FD6922"/>
<path d="M110.065 20.0324C108.462 21.1391 106.526 21.648 104.59 21.4713C102.654 21.2946 100.84 20.4434 99.4609 19.0645C98.6775 18.299 98.0581 17.3802 97.641 16.3645C97.224 15.3489 97.018 14.2581 97.0358 13.1593C97.0177 12.0604 97.2235 10.9695 97.6406 9.95379C98.0577 8.93812 98.6772 8.01928 99.4609 7.25399C101.019 5.69109 103.128 4.81348 105.328 4.81348C107.527 4.81348 109.637 5.69109 111.195 7.25399C111.979 8.01928 112.598 8.93812 113.015 9.95379C113.432 10.9695 113.638 12.0604 113.62 13.1593V21.5054C113.622 22.6017 113.408 23.6875 112.992 24.7006C112.575 25.7137 111.965 26.6342 111.194 27.4093C110.424 28.1843 109.509 28.7988 108.503 29.2175C107.496 29.6361 106.417 29.8507 105.328 29.849V26.2736C106.582 26.2736 107.785 25.772 108.672 24.8793C109.559 23.9866 110.057 22.7759 110.057 21.5134L110.065 20.0324ZM105.336 17.9168C106.59 17.9168 107.793 17.4153 108.68 16.5226C109.567 15.6299 110.065 14.4191 110.065 13.1566C110.065 11.892 109.566 10.6792 108.678 9.78505C107.789 8.89085 106.584 8.3885 105.328 8.3885C104.072 8.3885 102.867 8.89085 101.978 9.78505C101.09 10.6792 100.591 11.892 100.591 13.1566C100.591 14.4191 101.089 15.6299 101.976 16.5226C102.863 17.4153 104.066 17.9168 105.32 17.9168H105.336Z" fill="#FD6922"/>
<path d="M120.047 13.1592V21.5054H116.495V0.0449219H120.047V6.28605C121.65 5.17938 123.587 4.67051 125.523 4.84721C127.459 5.02391 129.273 5.8751 130.652 7.25395C131.435 8.01924 132.055 8.93808 132.472 9.95375C132.889 10.9694 133.095 12.0604 133.077 13.1592V21.5054H129.532V13.1592C129.532 11.8943 129.033 10.6812 128.145 9.78672C127.256 8.89227 126.051 8.38978 124.794 8.38978C123.537 8.38978 122.332 8.89227 121.443 9.78672C120.555 10.6812 120.055 11.8943 120.055 13.1592H120.047Z" fill="#FD6922"/>
<path d="M139.516 8.3911V13.1513C139.516 14.4138 140.015 15.6245 140.901 16.5172C141.788 17.4099 142.991 17.9115 144.246 17.9115V21.5054C143.154 21.5236 142.07 21.3164 141.061 20.8966C140.052 20.4768 139.139 19.8533 138.379 19.0645C137.595 18.299 136.976 17.3801 136.559 16.3645C136.142 15.3489 135.936 14.258 135.953 13.1592V0.0449219H139.516V4.8051H144.246V8.3911H139.516Z" fill="#FD6922"/>
<path d="M32.4092 0H31.5815V29.8278H32.4092V0Z" fill="#FD6922"/>
<path d="M24.2094 7.4047C24.3419 7.2155 24.4105 6.98842 24.4049 6.757C24.3993 6.52559 24.32 6.30211 24.1786 6.11957C24.0371 5.93703 23.8411 5.80511 23.6195 5.74329C23.3979 5.68147 23.1624 5.69303 22.9478 5.77627C22.7332 5.8595 22.5508 6.00999 22.4277 6.20552C22.3046 6.40105 22.2473 6.63124 22.2641 6.8621C22.281 7.09296 22.3711 7.31224 22.5213 7.48757C22.6714 7.6629 22.8736 7.78497 23.098 7.83576C23.3049 7.88222 23.5207 7.86609 23.7185 7.78939C23.9162 7.71269 24.0871 7.57885 24.2094 7.4047Z" fill="#FD6922"/>
<path d="M32.4092 0H31.5815V29.8278H32.4092V0Z" fill="#FD6922"/>
<path d="M24.2094 7.4047C24.3419 7.2155 24.4105 6.98842 24.4049 6.757C24.3993 6.52559 24.32 6.30211 24.1786 6.11957C24.0371 5.93703 23.8411 5.80511 23.6195 5.74329C23.3979 5.68147 23.1624 5.69303 22.9478 5.77627C22.7332 5.8595 22.5508 6.00999 22.4277 6.20552C22.3046 6.40105 22.2473 6.63124 22.2641 6.8621C22.281 7.09296 22.3711 7.31224 22.5213 7.48757C22.6714 7.6629 22.8736 7.78497 23.098 7.83576C23.3049 7.88222 23.5207 7.86609 23.7185 7.78939C23.9162 7.71269 24.0871 7.57885 24.2094 7.4047Z" fill="#FD6922"/>
<path d="M26.2586 7.96307C26.2588 7.95866 26.2588 7.95425 26.2586 7.94984C26.2586 7.80968 26.2586 3.40387 26.2586 3.269C26.2586 3.13413 26.2586 3.03892 26.2586 2.92785C26.2586 2.13449 26.2008 1.39931 25.6621 0.85982C25.1813 0.378513 24.443 0.174883 23.2975 0.19075L3.03731 0.148438C0.956386 0.148438 0 1.10312 0 3.1976V9.99672V10.8218C0 11.721 0.620074 12.6466 1.9916 12.6466H4.04362C4.19762 12.6466 4.34532 12.585 4.45421 12.4754C4.56311 12.3658 4.62428 12.2171 4.62428 12.0621V11.8823C4.62463 11.8039 4.60959 11.7263 4.58004 11.6538C4.55049 11.5813 4.507 11.5154 4.45207 11.4598C4.39714 11.4043 4.33185 11.3602 4.25995 11.3302C4.18806 11.3001 4.11097 11.2846 4.03311 11.2846H2.19391C1.95998 11.2832 1.73612 11.1887 1.5712 11.0217C1.40628 10.8547 1.31371 10.6289 1.31372 10.3934V3.1976C1.31372 1.82508 1.67368 1.45749 3.03731 1.45749L23.3106 1.50244C24.2538 1.48658 24.6243 1.64789 24.7557 1.78805C24.979 2.01284 24.9711 2.58142 24.9633 3.25313C24.9633 3.39329 24.9633 7.80175 24.9633 7.94984C24.9633 7.96835 24.9633 7.98158 24.9633 7.99744C24.963 8.00185 24.963 8.00626 24.9633 8.01067V10.0179C24.9633 11.2 24.2407 11.3401 23.9123 11.3401H21.4477C20.8108 11.34 20.1993 11.5916 19.7448 12.0407C19.2903 12.4897 19.0291 13.1004 19.0174 13.7414L18.9569 17.137V26.1813C18.9569 26.1885 18.9555 26.1956 18.9527 26.2022C18.9499 26.2088 18.9458 26.2147 18.9406 26.2197C18.9355 26.2246 18.9294 26.2285 18.9227 26.231C18.916 26.2335 18.9089 26.2346 18.9018 26.2342H8.98582C8.97189 26.2342 8.95852 26.2286 8.94867 26.2187C8.93881 26.2088 8.93328 26.1954 8.93328 26.1813V14.8865C8.93366 14.7989 8.91655 14.7121 8.88295 14.6313C8.84935 14.5506 8.79995 14.4774 8.73768 14.4162C8.67542 14.355 8.60157 14.3071 8.52053 14.2752C8.43948 14.2433 8.35289 14.2282 8.26591 14.2306H8.24752C8.0807 14.2327 7.92139 14.3007 7.80392 14.4199C7.68645 14.5391 7.62024 14.7001 7.61956 14.868V27.1651C7.61956 27.8665 7.89638 28.5391 8.38912 29.0351C8.88186 29.531 9.55015 29.8096 10.247 29.8096H17.638C18.3348 29.8096 19.0031 29.531 19.4958 29.0351C19.9886 28.5391 20.2654 27.8665 20.2654 27.1651V17.137V14.0085C20.2661 13.6449 20.4101 13.2965 20.6657 13.0397C20.9214 12.7829 21.2678 12.6386 21.629 12.6386H23.9097C24.519 12.6373 25.1051 12.4028 25.5492 11.9828C25.7967 11.7223 25.9887 11.4136 26.1134 11.0757C26.2381 10.7378 26.2929 10.3778 26.2743 10.0179V8.01067C26.2706 7.99433 26.2653 7.97839 26.2586 7.96307ZM13.7993 28.9211C13.5873 28.9211 13.38 28.8578 13.2037 28.7392C13.0274 28.6207 12.89 28.4522 12.8089 28.255C12.7278 28.0579 12.7065 27.8409 12.7479 27.6316C12.7893 27.4223 12.8913 27.23 13.0413 27.0792C13.1912 26.9283 13.3822 26.8255 13.5901 26.7839C13.7981 26.7422 14.0136 26.7636 14.2095 26.8453C14.4054 26.9269 14.5728 27.0652 14.6906 27.2427C14.8084 27.4201 14.8713 27.6287 14.8713 27.8421C14.8716 27.9839 14.8441 28.1244 14.7904 28.2554C14.7366 28.3865 14.6577 28.5056 14.5581 28.6058C14.4585 28.7061 14.3401 28.7856 14.2099 28.8397C14.0797 28.8938 13.9402 28.9214 13.7993 28.9211V28.9211Z" fill="#FD6922"/>
</svg>
