<svg width="213" height="44" viewBox="0 0 213 44" fill="none" xmlns="http://www.w3.org/2000/svg">
<path d="M56.1504 35.5859H57.2333V43.922H56.1504V35.5859Z" fill="white"/>
<path d="M60.4873 35.5859H66.0948V36.4626H63.8364V43.9142H62.7573V36.4626H60.4873V35.5859Z" fill="white"/>
<path d="M77.0705 44.0034C75.4095 44.0034 74.2302 43.0724 74.207 41.6759H75.3632C75.4364 42.3703 75.922 43.0646 77.0744 43.0646C78.1226 43.0646 78.7392 42.4673 78.7392 41.6759C78.7392 39.43 74.261 40.8652 74.261 37.7659C74.261 36.3888 75.3632 35.4385 77.005 35.4385C78.5851 35.4385 79.6179 36.3113 79.749 37.5797H78.5581C78.4849 37.0172 77.9646 36.3811 76.9549 36.3694C76.0608 36.3462 75.3594 36.8116 75.3594 37.7116C75.3594 39.8644 79.8299 38.5223 79.8299 41.61C79.8299 42.8319 78.8664 44.0034 77.0705 44.0034Z" fill="white"/>
<path d="M87.0986 44.0038C86.2568 44.02 85.4294 43.7835 84.7217 43.3246C84.014 42.8657 83.458 42.2051 83.1247 41.427C82.7914 40.6489 82.6958 39.7885 82.8502 38.9555C83.0045 38.1225 83.4017 37.3546 83.9912 36.7497C84.5808 36.1448 85.3359 35.7302 86.1604 35.5589C86.9848 35.3875 87.8413 35.4671 88.6207 35.7875C89.4001 36.108 90.067 36.6547 90.5365 37.358C91.006 38.0614 91.2568 38.8895 91.257 39.7369C91.278 40.296 91.1855 40.8536 90.985 41.3755C90.7846 41.8974 90.4804 42.3726 90.0911 42.772C89.7018 43.1715 89.2356 43.4868 88.721 43.6985C88.2065 43.9103 87.6544 44.0142 87.0986 44.0038V44.0038ZM87.0986 43.0612C88.8444 43.0612 90.1547 41.7811 90.1547 39.7485C90.1547 37.7159 88.8444 36.4319 87.0986 36.4319C85.3527 36.4319 84.0463 37.7004 84.0463 39.7485C84.0463 41.7966 85.3527 43.0573 87.0986 43.0573V43.0612Z" fill="white"/>
<path d="M95.6894 35.5859V43.0569H98.5875V43.9413H94.6064V35.5859H95.6894Z" fill="white"/>
<path d="M101.64 35.5859H102.719V40.8575C102.719 42.4091 103.54 43.0492 104.766 43.0492C105.991 43.0492 106.797 42.3897 106.797 40.8575V35.5859H107.88V40.8459C107.88 43.0104 106.465 44.0034 104.754 44.0034C103.043 44.0034 101.64 43.0104 101.64 40.8459V35.5859Z" fill="white"/>
<path d="M111.086 35.5859H116.697V36.4626H114.439V43.9142H113.356V36.4626H111.086V35.5859Z" fill="white"/>
<path d="M119.949 35.5859H121.032V43.922H119.949V35.5859Z" fill="white"/>
<path d="M128.559 44.0038C127.717 44.02 126.889 43.7835 126.182 43.3246C125.474 42.8657 124.918 42.2051 124.585 41.427C124.251 40.6489 124.156 39.7885 124.31 38.9555C124.464 38.1225 124.862 37.3546 125.451 36.7497C126.041 36.1448 126.796 35.7302 127.62 35.5589C128.445 35.3875 129.301 35.4671 130.081 35.7875C130.86 36.108 131.527 36.6547 131.996 37.358C132.466 38.0614 132.717 38.8895 132.717 39.7369C132.738 40.296 132.645 40.8536 132.445 41.3755C132.245 41.8974 131.94 42.3726 131.551 42.772C131.162 43.1715 130.696 43.4868 130.181 43.6985C129.666 43.9103 129.114 44.0142 128.559 44.0038V44.0038ZM128.559 43.0612C130.304 43.0612 131.615 41.7811 131.615 39.7485C131.615 37.7159 130.304 36.4319 128.559 36.4319C126.813 36.4319 125.506 37.7004 125.506 39.7485C125.506 41.7966 126.813 43.0573 128.559 43.0573V43.0612Z" fill="white"/>
<path d="M142.579 35.5703V43.9218H141.496L137.149 37.281V43.9218H136.066V35.5703H137.149L141.496 42.1996V35.5703H142.579Z" fill="white"/>
<path d="M148.97 44.0034C147.305 44.0034 146.13 43.0724 146.106 41.6759H147.263C147.332 42.3703 147.821 43.0646 148.974 43.0646C150.018 43.0646 150.635 42.4673 150.635 41.6759C150.635 39.43 146.157 40.8652 146.157 37.7659C146.157 36.3888 147.263 35.4385 148.901 35.4385C150.481 35.4385 151.517 36.3113 151.648 37.5797H150.458C150.388 37.0172 149.864 36.3811 148.854 36.3694C147.964 36.3462 147.263 36.8116 147.263 37.7116C147.263 39.8644 151.729 38.5223 151.729 41.61C151.725 42.8319 150.781 44.0034 148.97 44.0034Z" fill="white"/>
<path d="M170.94 40.4386H169.349V43.9297H168.266V35.5859H170.94C172.89 35.5859 173.804 36.6604 173.804 38.022C173.804 39.2904 172.998 40.4386 170.94 40.4386ZM170.94 39.5425C172.177 39.5425 172.701 38.9568 172.701 38.022C172.701 37.0871 172.177 36.4704 170.94 36.4704H169.349V39.5309L170.94 39.5425Z" fill="white"/>
<path d="M180.602 35.5859H181.758L178.629 43.922H177.373L174.247 35.5859H175.403L178.005 42.7738L180.602 35.5859Z" fill="white"/>
<path d="M182.167 35.5859H187.778V36.4626H185.519V43.9142H184.44V36.4626H182.17L182.167 35.5859Z" fill="white"/>
<path d="M189.201 43.9922C189.054 43.9968 188.91 43.9573 188.786 43.8788C188.662 43.8002 188.564 43.6862 188.504 43.5513C188.445 43.4164 188.427 43.2667 188.453 43.1215C188.479 42.9763 188.547 42.8421 188.649 42.7362C188.751 42.6302 188.882 42.5573 189.025 42.5268C189.169 42.4963 189.318 42.5095 189.454 42.5648C189.589 42.6202 189.706 42.715 189.788 42.8373C189.87 42.9596 189.914 43.1038 189.914 43.2513C189.916 43.4444 189.842 43.6305 189.708 43.7693C189.575 43.908 189.392 43.9881 189.201 43.9922V43.9922Z" fill="white"/>
<path d="M195.101 35.5859V43.0569H197.999V43.9413H194.022V35.5859H195.101Z" fill="white"/>
<path d="M198.392 35.5859H204.003V36.4626H201.745V43.9142H200.665V36.4626H198.392V35.5859Z" fill="white"/>
<path d="M212.058 39.7714C212.058 42.3548 210.382 43.922 207.661 43.922H205.083V35.5859H207.661C210.382 35.5859 212.058 37.188 212.058 39.7714ZM207.661 43.0259C209.823 43.0259 210.952 41.804 210.952 39.7714C210.952 37.7388 209.823 36.4626 207.661 36.4626H206.165V43.0181L207.661 43.0259Z" fill="white"/>
<path d="M60.5177 12.3086V19.2908C60.5177 21.1426 61.2485 22.9186 62.5495 24.228C63.8504 25.5374 65.6149 26.2731 67.4547 26.2731V31.5447C65.8535 31.5705 64.2639 31.2662 62.7839 30.6504C61.3039 30.0347 59.9647 29.1206 58.8489 27.9643C57.7003 26.8413 56.7924 25.4934 56.1813 24.0037C55.5702 22.5139 55.2688 20.914 55.2956 19.3025V0.0664062H60.5061V7.04864H67.4432V12.3086H60.5177Z" fill="white"/>
<path d="M91.9157 26.8969C91.6197 27.27 91.3032 27.6261 90.9676 27.9636C88.6827 30.2561 85.588 31.5434 82.3618 31.5434C79.1356 31.5434 76.0409 30.2561 73.756 27.9636C72.6069 26.8408 71.6984 25.493 71.0866 24.0033C70.4749 22.5136 70.1727 20.9135 70.1988 19.3018V7.05957H75.4132V19.3018C75.4132 21.1566 76.1453 22.9356 77.4484 24.2472C78.7515 25.5588 80.5189 26.2956 82.3618 26.2956C84.2047 26.2956 85.9721 25.5588 87.2752 24.2472C88.5783 22.9356 89.3104 21.1566 89.3104 19.3018V7.05957H94.5132V19.3018C94.5132 21.1566 95.2453 22.9356 96.5484 24.2472C97.8515 25.5588 99.619 26.2956 101.462 26.2956C103.305 26.2956 105.072 25.5588 106.375 24.2472C107.678 22.9356 108.41 21.1566 108.41 19.3018V7.05957H113.621V19.3018C113.648 20.9133 113.346 22.5132 112.735 24.0029C112.124 25.4927 111.216 26.8406 110.068 27.9636C107.783 30.2561 104.688 31.5434 101.462 31.5434C98.2356 31.5434 95.141 30.2561 92.856 27.9636C92.5242 27.6249 92.2103 27.2688 91.9157 26.8969V26.8969Z" fill="white"/>
<path d="M119.714 5.3105C119.37 5.31554 119.029 5.24927 118.711 5.1158C118.393 4.98234 118.107 4.78454 117.868 4.5347C117.62 4.29448 117.424 4.00566 117.291 3.68607C117.159 3.36649 117.093 3.02294 117.097 2.67665C117.094 2.33046 117.16 1.98711 117.292 1.66763C117.425 1.34814 117.621 1.05924 117.868 0.818598C118.36 0.329198 119.023 0.0546875 119.714 0.0546875C120.405 0.0546875 121.069 0.329198 121.56 0.818598C121.808 1.05924 122.003 1.34814 122.136 1.66763C122.269 1.98711 122.335 2.33046 122.331 2.67665C122.336 3.02294 122.269 3.36649 122.137 3.68607C122.004 4.00566 121.808 4.29448 121.56 4.5347C121.322 4.78491 121.035 4.98296 120.718 5.11645C120.4 5.24994 120.058 5.31601 119.714 5.3105V5.3105ZM122.319 7.05994V31.5443H117.109V7.05994H122.319Z" fill="white"/>
<path d="M131.007 0.0664062V31.5447H125.796V0.0664062H131.007Z" fill="white"/>
<path d="M137.088 5.3105C136.744 5.31554 136.402 5.24927 136.085 5.1158C135.767 4.98234 135.48 4.78454 135.242 4.5347C134.994 4.29448 134.798 4.00566 134.665 3.68607C134.532 3.36649 134.466 3.02294 134.471 2.67665C134.467 2.33046 134.533 1.98711 134.666 1.66763C134.798 1.34814 134.994 1.05924 135.242 0.818598C135.733 0.329198 136.396 0.0546875 137.088 0.0546875C137.779 0.0546875 138.442 0.329198 138.934 0.818598C139.182 1.05868 139.378 1.34748 139.511 1.66709C139.643 1.98671 139.709 2.33033 139.705 2.67665C139.71 3.02307 139.644 3.3669 139.512 3.68661C139.379 4.00633 139.182 4.29505 138.934 4.5347C138.696 4.78491 138.409 4.98296 138.091 5.11645C137.774 5.24994 137.432 5.31601 137.088 5.3105V5.3105ZM139.693 7.05994V31.5443H134.482V7.05994H139.693Z" fill="white"/>
<path d="M161.536 29.3827C159.185 31.006 156.344 31.7524 153.505 31.4932C150.665 31.234 148.004 29.9855 145.982 27.963C144.833 26.8402 143.924 25.4924 143.312 24.0027C142.701 22.513 142.398 20.9129 142.424 19.3012C142.398 17.6894 142.7 16.0892 143.312 14.5994C143.923 13.1096 144.832 11.7618 145.982 10.6393C148.267 8.34685 151.361 7.05957 154.587 7.05957C157.814 7.05957 160.908 8.34685 163.193 10.6393C164.343 11.7618 165.251 13.1096 165.863 14.5994C166.475 16.0892 166.777 17.6894 166.75 19.3012V31.5434C166.752 33.1514 166.439 34.7441 165.829 36.2301C165.218 37.7161 164.322 39.0662 163.192 40.2031C162.062 41.34 160.721 42.2413 159.244 42.8554C157.768 43.4694 156.185 43.7842 154.587 43.7817V38.5372C156.427 38.5372 158.192 37.8016 159.493 36.4922C160.794 35.1828 161.525 33.4068 161.525 31.555L161.536 29.3827ZM154.599 26.2795C156.439 26.2795 158.203 25.5439 159.504 24.2345C160.805 22.9251 161.536 21.1491 161.536 19.2973C161.536 17.4424 160.804 15.6635 159.501 14.3519C158.198 13.0403 156.43 12.3034 154.587 12.3034C152.745 12.3034 150.977 13.0403 149.674 14.3519C148.371 15.6635 147.639 17.4424 147.639 19.2973C147.639 21.1491 148.37 22.9251 149.671 24.2345C150.972 25.5439 152.736 26.2795 154.576 26.2795H154.599Z" fill="white"/>
<path d="M176.178 19.3025V31.5447H170.967V0.0664062H176.178V9.22089C178.529 7.59764 181.37 6.85123 184.209 7.11041C187.049 7.36959 189.709 8.61812 191.732 10.6406C192.882 11.7631 193.79 13.1109 194.402 14.6007C195.014 16.0905 195.316 17.6907 195.289 19.3025V31.5447H190.09V19.3025C190.09 17.4471 189.358 15.6677 188.055 14.3557C186.751 13.0437 184.983 12.3067 183.14 12.3067C181.296 12.3067 179.529 13.0437 178.225 14.3557C176.922 15.6677 176.189 17.4471 176.189 19.3025H176.178Z" fill="white"/>
<path d="M204.735 12.3086V19.2908C204.735 21.1426 205.466 22.9186 206.767 24.228C208.068 25.5374 209.832 26.2731 211.672 26.2731V31.5447C210.07 31.5714 208.481 31.2675 207.001 30.6517C205.52 30.0359 204.181 29.1213 203.066 27.9643C201.917 26.8415 201.008 25.4937 200.397 24.004C199.785 22.5143 199.483 20.9142 199.509 19.3025V0.0664062H204.735V7.04864H211.672V12.3086H204.735Z" fill="white"/>
<path d="M47.63 0H46.416V43.7515H47.63V0Z" fill="white"/>
<path d="M35.6027 10.8616C35.7971 10.5841 35.8976 10.251 35.8895 9.91159C35.8813 9.57215 35.7649 9.24435 35.5575 8.9766C35.35 8.70885 35.0625 8.51534 34.7374 8.42467C34.4124 8.33399 34.0669 8.35095 33.7521 8.47304C33.4374 8.59513 33.1699 8.81587 32.9894 9.10267C32.8088 9.38947 32.7246 9.72711 32.7493 10.0657C32.774 10.4044 32.9063 10.726 33.1266 10.9832C33.3468 11.2404 33.6434 11.4194 33.9725 11.4939C34.2759 11.5621 34.5926 11.5384 34.8826 11.4259C35.1727 11.3134 35.4232 11.1171 35.6027 10.8616Z" fill="white"/>
<path d="M47.63 0H46.416V43.7515H47.63V0Z" fill="white"/>
<path d="M35.6027 10.8616C35.7971 10.5841 35.8976 10.251 35.8895 9.91159C35.8813 9.57215 35.7649 9.24435 35.5575 8.9766C35.35 8.70885 35.0625 8.51534 34.7374 8.42467C34.4124 8.33399 34.0669 8.35095 33.7521 8.47304C33.4374 8.59513 33.1699 8.81587 32.9894 9.10267C32.8088 9.38947 32.7246 9.72711 32.7493 10.0657C32.774 10.4044 32.9063 10.726 33.1266 10.9832C33.3468 11.2404 33.6434 11.4194 33.9725 11.4939C34.2759 11.5621 34.5926 11.5384 34.8826 11.4259C35.1727 11.3134 35.4232 11.1171 35.6027 10.8616Z" fill="white"/>
<path d="M38.6084 11.6793C38.6088 11.6728 38.6088 11.6664 38.6084 11.6599C38.6084 11.4543 38.6084 4.99187 38.6084 4.79404C38.6084 4.59621 38.6084 4.45657 38.6084 4.29365C38.6084 3.12994 38.5236 2.05157 37.7336 1.26025C37.0283 0.554272 35.9453 0.255587 34.265 0.278861L4.54742 0.216797C1.49511 0.216797 0.0922852 1.61712 0.0922852 4.68931V14.6623V15.8725C0.0922852 17.1914 1.00181 18.549 3.01356 18.549H6.02347C6.24936 18.549 6.466 18.4587 6.62573 18.298C6.78546 18.1372 6.87519 17.9191 6.87519 17.6918V17.428C6.8757 17.3131 6.85364 17.1992 6.81029 17.0928C6.76694 16.9865 6.70315 16.8898 6.62258 16.8084C6.54201 16.7269 6.44624 16.6623 6.34079 16.6182C6.23533 16.5741 6.12226 16.5513 6.00806 16.5513H3.31031C2.96719 16.5493 2.63882 16.4107 2.39692 16.1657C2.15502 15.9208 2.01924 15.5895 2.01925 15.2441V4.68931C2.01925 2.6761 2.54723 2.13691 4.54742 2.13691L34.2843 2.20286C35.6679 2.17958 36.2113 2.4162 36.404 2.62179C36.7315 2.95151 36.72 3.7855 36.7084 4.77077C36.7084 4.97635 36.7084 11.4427 36.7084 11.6599C36.7084 11.6871 36.7084 11.7065 36.7084 11.7297C36.708 11.7362 36.708 11.7427 36.7084 11.7491V14.6933C36.7084 16.4272 35.6486 16.6328 35.1668 16.6328H31.5519C30.6176 16.6327 29.7207 17.0016 29.054 17.6603C28.3873 18.319 28.0042 19.2148 27.987 20.155L27.8983 25.1356V38.4019C27.8984 38.4124 27.8962 38.4228 27.8921 38.4325C27.888 38.4422 27.882 38.4509 27.8744 38.4581C27.8668 38.4654 27.8579 38.471 27.8481 38.4747C27.8383 38.4784 27.8279 38.48 27.8174 38.4795H13.2727C13.2523 38.4795 13.2327 38.4713 13.2182 38.4567C13.2037 38.4422 13.1956 38.4224 13.1956 38.4019V21.8346C13.1962 21.7061 13.1711 21.5788 13.1218 21.4603C13.0725 21.3418 13.0001 21.2345 12.9087 21.1448C12.8174 21.055 12.7091 20.9847 12.5902 20.9379C12.4713 20.8912 12.3443 20.8689 12.2167 20.8726H12.1898C11.9451 20.8756 11.7114 20.9753 11.5391 21.1502C11.3668 21.3251 11.2697 21.5611 11.2687 21.8074V39.8449C11.2687 40.8736 11.6747 41.8603 12.3975 42.5878C13.1202 43.3152 14.1005 43.7239 15.1226 43.7239H25.9637C26.9858 43.7239 27.9661 43.3152 28.6888 42.5878C29.4116 41.8603 29.8176 40.8736 29.8176 39.8449V25.1356V20.5467C29.8186 20.0135 30.0298 19.5024 30.4048 19.1257C30.7798 18.749 31.288 18.5374 31.8178 18.5374H35.163C36.0568 18.5355 36.9165 18.1916 37.5678 17.5754C37.9309 17.1933 38.2126 16.7406 38.3955 16.245C38.5784 15.7493 38.6587 15.2213 38.6315 14.6933V11.7491C38.626 11.7252 38.6183 11.7018 38.6084 11.6793ZM20.3331 42.4205C20.0221 42.4205 19.7181 42.3277 19.4595 42.1538C19.2009 41.9799 18.9994 41.7327 18.8804 41.4435C18.7614 41.1544 18.7302 40.8361 18.7909 40.5291C18.8516 40.2221 19.0013 39.9401 19.2212 39.7188C19.4411 39.4975 19.7213 39.3467 20.0263 39.2857C20.3313 39.2246 20.6475 39.2559 20.9348 39.3757C21.2221 39.4955 21.4677 39.6984 21.6405 39.9586C21.8133 40.2189 21.9055 40.5249 21.9055 40.8379C21.906 41.0459 21.8657 41.2519 21.7868 41.4442C21.708 41.6364 21.5922 41.8111 21.4461 41.9581C21.3 42.1052 21.1264 42.2218 20.9354 42.3011C20.7444 42.3805 20.5397 42.421 20.3331 42.4205V42.4205Z" fill="white"/>
</svg>
